<mxfile host="app.diagrams.net" agent="Mozilla/5.0 (Windows NT 10.0; Win64; x64) AppleWebKit/537.36 (KHTML, like Gecko) Chrome/135.0.0.0 Safari/537.36" version="26.2.10">
  <diagram name="Page-1" id="2c0d36ab-eaac-3732-788b-9136903baeff">
    <mxGraphModel dx="2380" dy="1295" grid="1" gridSize="10" guides="1" tooltips="1" connect="1" arrows="1" fold="1" page="1" pageScale="1.5" pageWidth="1169" pageHeight="827" background="none" math="0" shadow="0">
      <root>
        <mxCell id="0" />
        <mxCell id="1" parent="0" />
        <mxCell id="vIU2pxsFmPDskn5fKLDd-1" value="&lt;font style=&quot;font-size: 24px;&quot;&gt;&lt;b&gt;MENÃš: RESERVAS&lt;/b&gt;&lt;/font&gt;" style="rounded=1;whiteSpace=wrap;html=1;fillColor=light-dark(#23445d, #7d8c9b);strokeColor=#314354;fontColor=#ffffff;" vertex="1" parent="1">
          <mxGeometry x="490" y="170" width="310" height="160" as="geometry" />
        </mxCell>
        <mxCell id="vIU2pxsFmPDskn5fKLDd-2" value="&lt;font style=&quot;font-size: 24px;&quot;&gt;&lt;b&gt;RESERVAS&lt;/b&gt;&lt;/font&gt;" style="rounded=1;whiteSpace=wrap;html=1;fillColor=light-dark(#23445d, #7d8c9b);strokeColor=#314354;fontColor=#ffffff;" vertex="1" parent="1">
          <mxGeometry x="180" y="420" width="310" height="160" as="geometry" />
        </mxCell>
        <mxCell id="vIU2pxsFmPDskn5fKLDd-3" value="&lt;font style=&quot;font-size: 24px;&quot;&gt;&lt;b&gt;RUTAS&lt;/b&gt;&lt;/font&gt;" style="rounded=1;whiteSpace=wrap;html=1;fillColor=light-dark(#23445d, #7d8c9b);strokeColor=#314354;fontColor=#ffffff;" vertex="1" parent="1">
          <mxGeometry x="490" y="670" width="310" height="160" as="geometry" />
        </mxCell>
        <mxCell id="vIU2pxsFmPDskn5fKLDd-4" value="&lt;font style=&quot;font-size: 24px;&quot;&gt;&lt;b&gt;HOSPEDAJES&lt;/b&gt;&lt;/font&gt;" style="rounded=1;whiteSpace=wrap;html=1;fillColor=light-dark(#23445d, #7d8c9b);strokeColor=#314354;fontColor=#ffffff;" vertex="1" parent="1">
          <mxGeometry x="800" y="420" width="310" height="160" as="geometry" />
        </mxCell>
        <mxCell id="vIU2pxsFmPDskn5fKLDd-5" value="" style="endArrow=none;html=1;rounded=0;exitX=0.5;exitY=0;exitDx=0;exitDy=0;entryX=0.5;entryY=1;entryDx=0;entryDy=0;" edge="1" parent="1" source="vIU2pxsFmPDskn5fKLDd-2" target="vIU2pxsFmPDskn5fKLDd-1">
          <mxGeometry width="50" height="50" relative="1" as="geometry">
            <mxPoint x="600" y="640" as="sourcePoint" />
            <mxPoint x="650" y="590" as="targetPoint" />
            <Array as="points">
              <mxPoint x="335" y="360" />
              <mxPoint x="645" y="360" />
            </Array>
          </mxGeometry>
        </mxCell>
        <mxCell id="vIU2pxsFmPDskn5fKLDd-6" value="" style="endArrow=none;html=1;rounded=0;exitX=0.5;exitY=0;exitDx=0;exitDy=0;entryX=0.5;entryY=1;entryDx=0;entryDy=0;" edge="1" parent="1" source="vIU2pxsFmPDskn5fKLDd-4" target="vIU2pxsFmPDskn5fKLDd-1">
          <mxGeometry width="50" height="50" relative="1" as="geometry">
            <mxPoint x="540" y="540" as="sourcePoint" />
            <mxPoint x="695" y="370" as="targetPoint" />
            <Array as="points">
              <mxPoint x="955" y="360" />
              <mxPoint x="645" y="360" />
            </Array>
          </mxGeometry>
        </mxCell>
        <mxCell id="vIU2pxsFmPDskn5fKLDd-7" value="" style="endArrow=none;html=1;rounded=0;entryX=0.5;entryY=1;entryDx=0;entryDy=0;exitX=0.5;exitY=0;exitDx=0;exitDy=0;" edge="1" parent="1" source="vIU2pxsFmPDskn5fKLDd-3" target="vIU2pxsFmPDskn5fKLDd-1">
          <mxGeometry width="50" height="50" relative="1" as="geometry">
            <mxPoint x="600" y="640" as="sourcePoint" />
            <mxPoint x="650" y="590" as="targetPoint" />
          </mxGeometry>
        </mxCell>
      </root>
    </mxGraphModel>
  </diagram>
</mxfile>
